<?xml version="1.0" encoding="UTF-8" standalone="no"?>
<!-- Created with Inkscape (http://www.inkscape.org/) -->

<svg
   width="400"
   height="400"
   viewBox="0 0 400 400"
   version="1.1"
   id="svg1"
   xml:space="preserve"
   inkscape:version="1.4.2 (ebf0e940d0, 2025-05-08)"
   sodipodi:docname="star.svg"
   xmlns:inkscape="http://www.inkscape.org/namespaces/inkscape"
   xmlns:sodipodi="http://sodipodi.sourceforge.net/DTD/sodipodi-0.dtd"
   xmlns:xlink="http://www.w3.org/1999/xlink"
   xmlns="http://www.w3.org/2000/svg"
   xmlns:svg="http://www.w3.org/2000/svg"><sodipodi:namedview
     id="namedview1"
     pagecolor="#ffffff"
     bordercolor="#000000"
     borderopacity="0.25"
     inkscape:showpageshadow="2"
     inkscape:pageopacity="0.0"
     inkscape:pagecheckerboard="0"
     inkscape:deskcolor="#d1d1d1"
     inkscape:document-units="px"
     showguides="true"
     inkscape:zoom="3.0075"
     inkscape:cx="200"
     inkscape:cy="179.71737"
     inkscape:window-width="3388"
     inkscape:window-height="1412"
     inkscape:window-x="0"
     inkscape:window-y="0"
     inkscape:window-maximized="1"
     inkscape:current-layer="layer2" /><defs
     id="defs1"><linearGradient
       id="swatch1"><stop
         style="stop-color:#bb7d00;stop-opacity:1;"
         offset="0"
         id="stop1" /><stop
         style="stop-color:#e0b800;stop-opacity:1;"
         offset="1"
         id="stop2" /></linearGradient><linearGradient
       inkscape:collect="always"
       xlink:href="#swatch1"
       id="linearGradient2"
       gradientUnits="userSpaceOnUse"
       gradientTransform="matrix(0.99504127,0,0,0.99504127,2.4938477,-0.74331913)"
       x1="171.75769"
       y1="314.80579"
       x2="202.41528"
       y2="76.550346" /></defs><g
     inkscape:groupmode="layer"
     id="layer2"
     inkscape:label="Layer 2"><path
       style="fill:#bb7d00;fill-opacity:1;stroke:#000000;stroke-width:0;stroke-dasharray:none"
       d="m 247.5478,154.31754 127.46467,10.78885 -94.20285,88.45714 c -13.49736,-34.64658 -25.0212,-62.83088 -33.26182,-99.24599 z"
       id="path2"
       sodipodi:nodetypes="cccc" /><path
       style="fill:#bb7d00;fill-opacity:1;stroke:#000000;stroke-width:0;stroke-dasharray:none"
       d="m 152.7847,158.02079 -130.124683,9.79133 99.522863,85.79713 c 9.75727,-23.89049 20.84455,-48.72958 30.60182,-95.58846 z"
       id="path2-9"
       sodipodi:nodetypes="cccc" /><path
       id="path1"
       style="fill:url(#linearGradient2);fill-opacity:1;stroke:#000000;stroke-width:0;stroke-dasharray:none"
       d="m 200.34375,20.099609 v 0.654297 C 174.25764,87.625348 126.09997,143.22992 129.01727,144.19941 l 40.11244,-4.66035 C 150.8189,240.17311 86.737904,370.88033 80.777692,373.00488 123.79186,352.45101 165.95572,332.16299 200.11281,306.29071 c 37.82937,32.03812 80.9245,57.08012 126.64821,80.34675 -1.6055,-2.4292 -74.08113,-149.99549 -95.33456,-247.0984 l 36.78743,3.99535 c 2.73096,0.39302 -36.13962,-48.388262 -67.66897,-122.780504 v -0.654297 c -0.0333,0.10925 -0.0681,0.218984 -0.10156,0.328125 -0.0334,-0.109148 -0.0663,-0.218868 -0.0996,-0.328125 z"
       sodipodi:nodetypes="cccccccccccccc" /></g></svg>
